<?xml version="1.0" standalone="no"?>
<!DOCTYPE svg PUBLIC "-//W3C//DTD SVG 20010904//EN"
 "http://www.w3.org/TR/2001/REC-SVG-20010904/DTD/svg10.dtd">
<svg version="1.0" xmlns="http://www.w3.org/2000/svg"
 width="256.000000pt" height="256.000000pt" viewBox="0 0 256.000000 256.000000"
 preserveAspectRatio="xMidYMid meet">
<metadata>
Created by potrace 1.16, written by Peter Selinger 2001-2019
</metadata>
<g transform="translate(0.000000,256.000000) scale(0.100000,-0.100000)"
fill="#000000" stroke="none">
<path d="M0 1280 l0 -1280 1280 0 1280 0 0 1280 0 1280 -1280 0 -1280 0 0
-1280z m1000 770 l0 -30 120 0 120 0 0 30 0 30 60 0 60 0 0 -30 c0 -27 3 -30
30 -30 27 0 30 -3 30 -30 0 -27 3 -30 30 -30 l30 0 0 -60 0 -60 -30 0 c-27 0
-30 3 -30 30 0 27 -3 30 -30 30 -27 0 -30 3 -30 30 l0 30 -60 0 -60 0 0 -30
c0 -27 3 -30 30 -30 27 0 30 -3 30 -30 l0 -30 -60 0 -60 0 0 60 0 60 -60 0
-60 0 0 -60 0 -60 30 0 30 0 0 -60 0 -60 30 0 c27 0 30 3 30 30 l0 30 60 0 60
0 0 -30 c0 -27 3 -30 30 -30 27 0 30 3 30 30 0 27 3 30 30 30 l30 0 0 -90 0
-90 -30 0 c-27 0 -30 -3 -30 -30 0 -27 3 -30 30 -30 27 0 30 -3 30 -30 0 -27
3 -30 30 -30 l30 0 0 -60 0 -60 30 0 30 0 0 -60 0 -60 30 0 c27 0 30 -3 30
-30 l0 -30 210 0 210 0 0 30 0 30 60 0 60 0 0 30 0 30 150 0 150 0 0 -30 c0
-27 3 -30 30 -30 l30 0 0 -60 0 -60 -30 0 c-27 0 -30 3 -30 30 l0 30 -90 0
-90 0 0 -30 c0 -27 3 -30 30 -30 27 0 30 -3 30 -30 l0 -30 -60 0 -60 0 0 -30
c0 -27 -3 -30 -30 -30 -27 0 -30 -3 -30 -30 l0 -30 -120 0 -120 0 0 -30 0 -30
-90 0 -90 0 0 -30 0 -30 -90 0 -90 0 0 60 0 60 -30 0 c-27 0 -30 3 -30 30 0
27 -3 30 -30 30 l-30 0 0 -60 0 -60 -30 0 c-27 0 -30 -3 -30 -30 l0 -30 -240
0 -240 0 0 30 c0 27 -3 30 -30 30 -27 0 -30 3 -30 30 l0 30 -90 0 -90 0 0 -30
c0 -27 -3 -30 -30 -30 -27 0 -30 -3 -30 -30 l0 -30 -60 0 -60 0 0 -30 0 -30
-90 0 -90 0 0 30 c0 27 -3 30 -30 30 -27 0 -30 3 -30 30 0 27 -3 30 -30 30
l-30 0 0 120 0 120 30 0 30 0 0 60 0 60 60 0 60 0 0 30 0 30 60 0 60 0 0 30 0
30 60 0 60 0 0 30 0 30 60 0 60 0 0 30 0 30 90 0 90 0 0 30 c0 27 3 30 30 30
27 0 30 -3 30 -30 0 -27 3 -30 30 -30 l30 0 0 90 0 90 -30 0 -30 0 0 60 0 60
30 0 c27 0 30 3 30 30 l0 30 -60 0 -60 0 0 90 0 90 30 0 c27 0 30 3 30 30 0
27 3 30 30 30 27 0 30 -3 30 -30z m-600 -1680 c0 -27 -3 -30 -30 -30 -27 0
-30 -3 -30 -30 0 -27 3 -30 30 -30 27 0 30 -3 30 -30 l0 -30 60 0 60 0 0 30
c0 27 3 30 30 30 27 0 30 -3 30 -30 l0 -30 60 0 60 0 0 -30 0 -30 60 0 60 0 0
-30 0 -30 90 0 90 0 0 30 0 30 120 0 120 0 0 -30 0 -30 90 0 90 0 0 30 c0 27
3 30 30 30 l30 0 0 60 0 60 120 0 120 0 0 30 c0 27 3 30 30 30 l30 0 0 -60 0
-60 -30 0 c-27 0 -30 -3 -30 -30 l0 -30 -60 0 -60 0 0 -30 0 -30 -90 0 -90 0
0 -30 0 -30 -360 0 -360 0 0 30 0 30 -60 0 -60 0 0 30 0 30 -120 0 -120 0 0
30 c0 27 -3 30 -30 30 -27 0 -30 3 -30 30 0 27 -3 30 -30 30 -27 0 -30 3 -30
30 l0 30 60 0 60 0 0 30 c0 27 3 30 30 30 27 0 30 -3 30 -30z"/>
<path d="M940 1990 c0 -27 3 -30 30 -30 27 0 30 3 30 30 0 27 -3 30 -30 30
-27 0 -30 -3 -30 -30z"/>
<path d="M1000 1720 l0 -60 30 0 30 0 0 60 0 60 -30 0 -30 0 0 -60z"/>
<path d="M760 1030 c0 -27 3 -30 30 -30 27 0 30 -3 30 -30 l0 -30 60 0 60 0 0
30 c0 27 -3 30 -30 30 -27 0 -30 3 -30 30 l0 30 -60 0 -60 0 0 -30z"/>
<path d="M1000 970 c0 -27 3 -30 30 -30 27 0 30 3 30 30 0 27 -3 30 -30 30
-27 0 -30 -3 -30 -30z"/>
</g>
</svg>
